<svg width="49" height="30" viewBox="0 0 49 30" fill="none" xmlns="http://www.w3.org/2000/svg">
<path d="M0.63623 17.7009C0.63623 17.7009 5.54234 9.07019 12.7193 19.5177C14.3991 21.963 15.6266 28.3305 20.3511 28.6032C20.3511 28.6032 13.8303 33.1833 9.63109 24.9689C8.31486 22.3945 6.35992 16.8831 0.63623 17.7009Z" fill="url(#paint0_linear_544_14)"/>
<path d="M9.90332 10.342C9.90332 10.342 15.287 7.32366 20.3511 19.9726C21.9001 23.8415 26.6203 33.6002 34.6149 28.6033C34.6149 28.6033 30.4726 27.8085 25.0757 16.0659C23.3828 12.3828 16.1719 1.89289 9.90332 10.342Z" fill="url(#paint1_linear_544_14)"/>
<path d="M18.2612 2.89217C18.2612 2.89217 23.5306 0.0761625 29.7996 12.7042C29.7996 12.7042 41.8827 37.4162 47.7883 25.151C47.7883 25.151 42.4283 25.151 36.6136 13.3399C34.2819 8.6035 28.1645 -6.19286 18.2612 2.89217Z" fill="url(#paint2_linear_544_14)"/>
<path d="M32.4346 0.621094C32.4346 0.621094 38.9763 2.62038 38.7942 10.8874C38.7942 10.8874 40.7933 10.1604 43.0639 11.3415C43.0639 11.3415 43.0648 1.34743 32.4346 0.621094Z" fill="url(#paint3_linear_544_14)"/>
<path d="M43.8999 21.3814C46.2313 23.5548 47.8036 23.6936 47.8309 23.6953L47.8409 23.696C48.2684 22.4955 50.9562 13.8345 40.1567 12.1582C40.1567 12.1582 46.384 16.4039 43.8999 21.3814Z" fill="url(#paint4_linear_544_14)"/>
<path d="M5.63317 29.2395C5.63317 29.2395 1.09055 24.2428 3.72514 18.9734C3.72514 18.9734 8.53258e-05 18.1558 8.53258e-05 20.7904C8.53258e-05 20.7904 -0.0905188 26.7866 5.63317 29.2395Z" fill="url(#paint5_linear_544_14)"/>
<path d="M12.6286 16.8828C12.6286 16.8828 12.3683 12.7452 13.7184 12.1583C13.7184 12.1583 9.90296 10.0688 8.90332 13.7939C8.90332 13.7939 10.8118 14.6121 12.6286 16.8828Z" fill="url(#paint6_linear_544_14)"/>
<path d="M20.8053 8.16171C20.8053 8.16171 21.1688 6.16285 22.895 4.98178C22.895 4.98178 18.4434 2.16471 16.1719 5.98079C16.1719 5.98079 19.3516 6.43573 20.8053 8.16171Z" fill="url(#paint7_linear_544_14)"/>
<defs>
<linearGradient id="paint0_linear_544_14" x1="-18.8298" y1="-0.681635" x2="35.8584" y2="41.3559" gradientUnits="userSpaceOnUse">
<stop offset="0.0275" stop-color="white"/>
<stop offset="0.3" stop-color="#00B2EA"/>
<stop offset="0.3707" stop-color="#00ABE1"/>
<stop offset="0.486" stop-color="#009ACF"/>
<stop offset="0.6316" stop-color="#0081B6"/>
<stop offset="0.8018" stop-color="#056398"/>
<stop offset="0.9908" stop-color="#193E79"/>
<stop offset="1" stop-color="#1A3C78"/>
</linearGradient>
<linearGradient id="paint1_linear_544_14" x1="-12.7267" y1="-8.62126" x2="41.9617" y2="33.4164" gradientUnits="userSpaceOnUse">
<stop offset="0.0275" stop-color="white"/>
<stop offset="0.3" stop-color="#00B2EA"/>
<stop offset="0.3707" stop-color="#00ABE1"/>
<stop offset="0.486" stop-color="#009ACF"/>
<stop offset="0.6316" stop-color="#0081B6"/>
<stop offset="0.8018" stop-color="#056398"/>
<stop offset="0.9908" stop-color="#193E79"/>
<stop offset="1" stop-color="#1A3C78"/>
</linearGradient>
<linearGradient id="paint2_linear_544_14" x1="-6.30447" y1="-16.9763" x2="48.3837" y2="25.0612" gradientUnits="userSpaceOnUse">
<stop offset="0.0275" stop-color="white"/>
<stop offset="0.3" stop-color="#00B2EA"/>
<stop offset="0.3707" stop-color="#00ABE1"/>
<stop offset="0.486" stop-color="#009ACF"/>
<stop offset="0.6316" stop-color="#0081B6"/>
<stop offset="0.8018" stop-color="#056398"/>
<stop offset="0.9908" stop-color="#193E79"/>
<stop offset="1" stop-color="#1A3C78"/>
</linearGradient>
<linearGradient id="paint3_linear_544_14" x1="-1.052" y1="-23.8084" x2="53.6354" y2="18.2285" gradientUnits="userSpaceOnUse">
<stop offset="0.0275" stop-color="white"/>
<stop offset="0.3" stop-color="#00B2EA"/>
<stop offset="0.3707" stop-color="#00ABE1"/>
<stop offset="0.486" stop-color="#009ACF"/>
<stop offset="0.6316" stop-color="#0081B6"/>
<stop offset="0.8018" stop-color="#056398"/>
<stop offset="0.9908" stop-color="#193E79"/>
<stop offset="1" stop-color="#1A3C78"/>
</linearGradient>
<linearGradient id="paint4_linear_544_14" x1="-4.16158" y1="-19.7645" x2="50.5266" y2="22.2729" gradientUnits="userSpaceOnUse">
<stop stop-color="white"/>
<stop offset="0.0092" stop-color="#F4F5F5"/>
<stop offset="0.0898" stop-color="#B7B9BC"/>
<stop offset="0.1619" stop-color="#8A8C8F"/>
<stop offset="0.2232" stop-color="#6B6C6E"/>
<stop offset="0.2712" stop-color="#555658"/>
<stop offset="0.3" stop-color="#4D4D4F"/>
<stop offset="0.7204" stop-color="#444446"/>
<stop offset="1" stop-color="#383839"/>
</linearGradient>
<linearGradient id="paint5_linear_544_14" x1="-22.1686" y1="3.66189" x2="32.5198" y2="45.6995" gradientUnits="userSpaceOnUse">
<stop stop-color="white"/>
<stop offset="0.0092" stop-color="#F4F5F5"/>
<stop offset="0.0898" stop-color="#B7B9BC"/>
<stop offset="0.1619" stop-color="#8A8C8F"/>
<stop offset="0.2232" stop-color="#6B6C6E"/>
<stop offset="0.2712" stop-color="#555658"/>
<stop offset="0.3" stop-color="#4D4D4F"/>
<stop offset="0.7204" stop-color="#444446"/>
<stop offset="1" stop-color="#383839"/>
</linearGradient>
<linearGradient id="paint6_linear_544_14" x1="-14.2902" y1="-6.59016" x2="40.3999" y2="35.4488" gradientUnits="userSpaceOnUse">
<stop stop-color="white"/>
<stop offset="0.0092" stop-color="#F4F5F5"/>
<stop offset="0.0898" stop-color="#B7B9BC"/>
<stop offset="0.1619" stop-color="#8A8C8F"/>
<stop offset="0.2232" stop-color="#6B6C6E"/>
<stop offset="0.2712" stop-color="#555658"/>
<stop offset="0.3" stop-color="#4D4D4F"/>
<stop offset="0.7204" stop-color="#444446"/>
<stop offset="1" stop-color="#383839"/>
</linearGradient>
<linearGradient id="paint7_linear_544_14" x1="-7.55837" y1="-15.3434" x2="47.1283" y2="26.6928" gradientUnits="userSpaceOnUse">
<stop stop-color="white"/>
<stop offset="0.0092" stop-color="#F4F5F5"/>
<stop offset="0.0898" stop-color="#B7B9BC"/>
<stop offset="0.1619" stop-color="#8A8C8F"/>
<stop offset="0.2232" stop-color="#6B6C6E"/>
<stop offset="0.2712" stop-color="#555658"/>
<stop offset="0.3" stop-color="#4D4D4F"/>
<stop offset="0.7204" stop-color="#444446"/>
<stop offset="1" stop-color="#383839"/>
</linearGradient>
</defs>
</svg>
